<?xml version="1.0" encoding="UTF-8"?>
<svg xmlns="http://www.w3.org/2000/svg" viewBox="0 0 651.1 789.28">
  <defs>
    <style>
      .cls-1 {
        letter-spacing: .44em;
      }

      .cls-2 {
        letter-spacing: .5em;
      }

      .cls-3 {
        font-family: Tinos-Bold, Tinos;
        font-size: 90px;
        font-weight: 700;
      }

      .cls-3, .cls-4, .cls-5 {
        fill: #1d1d1b;
      }

      .cls-4 {
        font-family: Tinos-Regular, Tinos;
        font-size: 50px;
      }

      .cls-6 {
        letter-spacing: .3em;
      }

      .cls-7 {
        letter-spacing: .28em;
      }

      .cls-5, .cls-8 {
        stroke-width: 0px;
      }

      .cls-8 {
        fill: #fff;
      }
    </style>
  </defs>
  <g id="Capa_4" data-name="Capa 4">
    <path class="cls-5" d="m.02,583.3c17.54.23,52.62.91,73.53-37.54C94.47,507.3,312.37,0,312.37,0h42.79s195.3,525.41,227.93,554.78c35.29,31.77,68.01,28.38,68.01,28.38v22.24s-219.66,3.94-237.08,2.38c-47.61-4.27-44.29-57.08-42.85-134.02s2.15-107.58,3.42-119.97-19.78,18.72-55.22,25.33c-35.44,6.61-51.73,2.34-50.88,7.78s3.31,69.38,3.41,89.57c.07,16.33,1.98,126.15-31.05,131.12-37.48,5.64-243.42,1.24-240.83,1.05v-25.35Z"/>
    <path class="cls-8" d="m315.7,357.69c30.72,0,44.51-18.78,44.38-42.67-.09-16.42-34.41-68.34-21.34-90.46,11.09-18.78-25.6,18.78-46.94,62.3-21.34,43.52-2.56,70.83,23.9,70.83Z"/>
  </g>
  <g id="Capa_5" data-name="Capa 5">
    <text class="cls-3" transform="translate(88.06 761.99)"><tspan class="cls-2" x="0" y="0">ÁNIM</tspan><tspan class="cls-1" x="429.96" y="0">A</tspan></text>
    <text class="cls-4" transform="translate(147.32 671.81)"><tspan class="cls-6" x="0" y="0">PROYEC</tspan><tspan class="cls-7" x="287.27" y="0">T</tspan><tspan class="cls-6" x="331.9" y="0">O</tspan></text>
  </g>
</svg>